<?xml version="1.0" encoding="iso-8859-1"?>
<!-- Generator: Adobe Illustrator 19.0.0, SVG Export Plug-In . SVG Version: 6.00 Build 0)  -->
<svg version="1.1" id="Layer_1" xmlns="http://www.w3.org/2000/svg" xmlns:xlink="http://www.w3.org/1999/xlink" x="0px" y="0px"
	 viewBox="0 0 512.032 512.032" style="enable-background:new 0 0 512.032 512.032;" xml:space="preserve">
<path style="fill:#414752;" d="M445.872,313.824l-102.864-83.68H235.04c-20.768,0-37.664-17.056-37.664-38.016V38.016
	C197.376,17.056,214.272,0,235.04,0h238.128c20.768,0,37.664,17.056,37.664,38.016v154.112c0,20.96-16.896,38.016-37.664,38.016
	h-27.296L445.872,313.824L445.872,313.824z M235.04,32c-3.056,0-5.664,2.752-5.664,6.016v154.112c0,3.264,2.592,6.016,5.664,6.016
	h119.344l59.488,48.4v-48.4h59.296c3.056,0,5.664-2.752,5.664-6.016V38.016c0-3.264-2.592-6.016-5.664-6.016
	C473.168,32,235.04,32,235.04,32z"/>
<g>
	<path style="fill:#3B95D1;" d="M66.16,512.032v-83.68H38.864c-20.768,0-37.664-17.04-37.664-38.016V236.224
		c0-20.96,16.896-38.016,37.664-38.016h238.128c20.768,0,37.664,17.056,37.664,38.016v154.112c0,20.976-16.896,38.016-37.664,38.016
		H169.024L66.16,512.032z M38.864,230.192c-3.056,0-5.664,2.752-5.664,6.016V390.32c0,3.264,2.592,6.016,5.664,6.016H98.16v48.4
		l59.488-48.4h119.344c3.056,0,5.664-2.752,5.664-6.016V236.208c0-3.264-2.592-6.016-5.664-6.016L38.864,230.192L38.864,230.192z"/>
	
		<rect x="143.246" y="149.944" transform="matrix(-0.5828 0.8126 -0.8126 -0.5828 505.7899 364.8202)" style="fill:#3B95D1;" width="32" height="324.604"/>
</g>
<g>
</g>
<g>
</g>
<g>
</g>
<g>
</g>
<g>
</g>
<g>
</g>
<g>
</g>
<g>
</g>
<g>
</g>
<g>
</g>
<g>
</g>
<g>
</g>
<g>
</g>
<g>
</g>
<g>
</g>
</svg>
